<svg width="100" height="100" viewBox="0 0 100 100" xmlns="http://www.w3.org/2000/svg"><title>design-categories-landing-page-design</title><g fill="none" fill-rule="evenodd"><path fill="#6E8097" d="M11 11h78v15.978H11z"/><path stroke="#5D6D81" stroke-width="2" d="M11 11h78v15.978H11z"/><path fill="#FFF" d="M11 26.978h78v31.956H11z"/><path fill="#F4F4F4" d="M11 58.934h78v29.587H11z"/><path stroke="#5D6D81" stroke-width="2" d="M11 27.218h78v61.25H11z"/><path stroke="#5D6D81" stroke-width="2" stroke-linecap="round" d="M11 26.978h78v31.956H11z"/><path d="M23.103 18.99c0 2.205-1.806 3.994-4.034 3.994-2.228 0-4.035-1.789-4.035-3.995 0-2.206 1.807-3.994 4.035-3.994s4.034 1.788 4.034 3.994z" fill="#F08481"/><path d="M23.103 18.99c0 2.205-1.806 3.994-4.034 3.994-2.228 0-4.035-1.789-4.035-3.995 0-2.206 1.807-3.994 4.035-3.994s4.034 1.788 4.034 3.994z" stroke="#5D6D81" stroke-width="2"/><path d="M35.207 18.99c0 2.205-1.806 3.994-4.035 3.994-2.228 0-4.034-1.789-4.034-3.995 0-2.206 1.806-3.994 4.034-3.994 2.229 0 4.035 1.788 4.035 3.994z" fill="#EBB200"/><path d="M35.207 18.99c0 2.205-1.806 3.994-4.035 3.994-2.228 0-4.034-1.789-4.034-3.995 0-2.206 1.806-3.994 4.034-3.994 2.229 0 4.035 1.788 4.035 3.994z" stroke="#5D6D81" stroke-width="2"/><path d="M47.31 18.99c0 2.205-1.806 3.994-4.034 3.994-2.229 0-4.035-1.789-4.035-3.995 0-2.206 1.806-3.994 4.035-3.994 2.228 0 4.034 1.788 4.034 3.994z" fill="#7DDEB1"/><path d="M47.31 18.99c0 2.205-1.806 3.994-4.034 3.994-2.229 0-4.035-1.789-4.035-3.995 0-2.206 1.806-3.994 4.035-3.994 2.228 0 4.034 1.788 4.034 3.994z" stroke="#5D6D81" stroke-width="2"/><path fill="#F08481" d="M19.069 64.26h16.138v6.658H19.069z"/><path stroke="#5D6D81" stroke-width="2" stroke-linecap="round" d="M19.069 64.26h16.138v6.658H19.069z"/><path fill="#7DDEB1" d="M64.793 64.26h16.138v6.658H64.793z"/><path stroke="#5D6D81" stroke-width="2" stroke-linecap="round" d="M64.793 64.26h16.138v6.658H64.793z"/><path fill="#EBB200" d="M41.931 64.26h16.138v6.658H41.931z"/><path stroke="#5D6D81" stroke-width="2" stroke-linecap="round" d="M41.931 64.26h16.138v6.658H41.931zM19.069 76.244h16.138M19.069 81.57h16.138m6.724-5.326h16.138M41.931 81.57h16.138m6.724-5.326h16.138M64.793 81.57h16.138"/><path d="M45.966 47.116v-8.32c0-.762.833-1.24 1.5-.86l7.26 4.128a.987.987 0 0 1 .005 1.718l-7.258 4.191c-.668.387-1.507-.091-1.507-.857z" fill="#5BAADC"/><path d="M45.966 47.116v-8.32c0-.762.833-1.24 1.5-.86l7.26 4.128a.987.987 0 0 1 .005 1.718l-7.258 4.191c-.668.387-1.507-.091-1.507-.857z" stroke="#5D6D81" stroke-width="2" stroke-linecap="round"/></g></svg>