<svg width="100" height="100" viewBox="0 0 100 100" xmlns="http://www.w3.org/2000/svg"><title>design-categories-wordpress-design</title><g fill="none" fill-rule="evenodd"><path fill="#F5F5F5" d="M11 89h78V11H11z"/><path stroke="#5D6D81" stroke-width="2" d="M11 89h78V11H11z"/><path fill="#6E8097" d="M11 27h78V11H11z"/><path stroke="#5D6D81" stroke-width="2" d="M11 27h78V11H11z"/><path d="M23 19a4 4 0 1 1-8 0 4 4 0 0 1 8 0" fill="#F08481"/><path d="M23 19a4 4 0 1 1-8 0 4 4 0 0 1 8 0z" stroke="#5D6D81" stroke-width="2"/><path d="M35 19a4 4 0 1 1-8 0 4 4 0 0 1 8 0" fill="#EBB200"/><path d="M35 19a4 4 0 1 1-8 0 4 4 0 0 1 8 0z" stroke="#5D6D81" stroke-width="2"/><path d="M47 19a4 4 0 1 1-8 0 4 4 0 0 1 8 0" fill="#7DDEB1"/><path d="M47 19a4 4 0 1 1-8 0 4 4 0 0 1 8 0z" stroke="#5D6D81" stroke-width="2"/><path fill="#FFF" d="M19 81h62v-7H19z"/><path stroke="#5D6D81" stroke-width="2" d="M19 81h62v-7H19z"/><path fill="#FFF" d="M43 50h38V35H43z"/><path d="M20.176 34.757a11.44 11.44 0 0 1-4.463 0 .89.89 0 0 1-.893-.888c0-.49.4-.888.893-.888a11.44 11.44 0 0 0 4.463 0 .89.89 0 0 1 .893.888c0 .49-.4.888-.893.888zm9.374-.001a16.377 16.377 0 0 1-5.356 0 .89.89 0 0 1-.893-.888c0-.49.4-.888.893-.888 1.773.294 3.583.294 5.356 0a.89.89 0 0 1 .893.888c0 .49-.4.888-.893.888z" stroke="#5D6D81" stroke-width="2" stroke-linecap="round" stroke-linejoin="round"/><path d="M38.626 33.078c-.454-1.172-.83-1.654-3.273-1.654-1.183 0-2.232.874-2.232 2.22 0 .988.79 1.967 1.339 3.109.475.985.893 1.626.893 3.108 0 .575-.127 1.205-.329 1.936h-.005l-1.898 5.613-4.47-12.533c-1.235.135-2.48.13-3.712-.016l1.933 5-2.678 7.894-4.633-12.894c-1.19.17-2.4.149-3.587-.058l5.553 15.157c.251.702.84 1.23 1.569 1.407a2.227 2.227 0 0 0 2.638-1.45l2.923-8.723 3.125 8.72c.356.858 1.12 1.311 1.96.89a1.66 1.66 0 0 0 .964-1.013l3.325-9.867c.686-1.709.893-3.276.893-4.49v-.729c0-.556-.098-1.108-.298-1.627" fill="#FFF" fill-rule="nonzero"/><path d="M38.626 33.078c-.454-1.172-.83-1.654-3.273-1.654-1.183 0-2.232.874-2.232 2.22 0 .988.79 1.967 1.339 3.109.475.985.893 1.626.893 3.108 0 .575-.127 1.205-.329 1.936h-.005l-1.898 5.613-4.47-12.533c-1.235.135-2.48.13-3.712-.016l1.933 5-2.678 7.894-4.633-12.894c-1.19.17-2.4.149-3.587-.058l5.553 15.157c.251.702.84 1.23 1.569 1.407a2.227 2.227 0 0 0 2.638-1.45l2.923-8.723 3.125 8.72c.356.858 1.12 1.311 1.96.89a1.66 1.66 0 0 0 .964-1.013l3.325-9.867c.686-1.709.893-3.276.893-4.49v-.729c0-.556-.098-1.108-.298-1.627zM43 49h38V34H43z" stroke="#5D6D81" stroke-width="2"/><path d="M19 57h28m-28 5h62m-62 5h62" stroke="#5D6D81" stroke-width="2" stroke-linecap="round"/><path d="M78.5 37a1.5 1.5 0 1 1 0-3 1.5 1.5 0 0 1 0 3m0 8a1.5 1.5 0 1 1 0-3 1.5 1.5 0 0 1 0 3m-4-4a1.5 1.5 0 1 1 0-3 1.5 1.5 0 0 1 0 3m-4-4a1.5 1.5 0 1 1 0-3 1.5 1.5 0 0 1 0 3m0 8a1.5 1.5 0 1 1 0-3 1.5 1.5 0 0 1 0 3m4 4a1.5 1.5 0 1 1 0-3 1.5 1.5 0 0 1 0 3m-8-8a1.5 1.5 0 1 1 0-3 1.5 1.5 0 0 1 0 3m-4-4a1.5 1.5 0 1 1 0-3 1.5 1.5 0 0 1 0 3m0 8a1.5 1.5 0 1 1 0-3 1.5 1.5 0 0 1 0 3m4 4a1.5 1.5 0 1 1 0-3 1.5 1.5 0 0 1 0 3m-8-8a1.5 1.5 0 1 1 0-3 1.5 1.5 0 0 1 0 3m-4-4a1.5 1.5 0 1 1 0-3 1.5 1.5 0 0 1 0 3m0 8a1.5 1.5 0 1 1 0-3 1.5 1.5 0 0 1 0 3m4 4a1.5 1.5 0 1 1 0-3 1.5 1.5 0 0 1 0 3m-8-8a1.5 1.5 0 1 1 0-3 1.5 1.5 0 0 1 0 3m-4-4a1.5 1.5 0 1 1 0-3 1.5 1.5 0 0 1 0 3m0 8a1.5 1.5 0 1 1 0-3 1.5 1.5 0 0 1 0 3m4 4a1.5 1.5 0 1 1 0-3 1.5 1.5 0 0 1 0 3" fill="#5D6D81"/></g></svg>