<svg width="100" height="100" viewBox="0 0 100 100" xmlns="http://www.w3.org/2000/svg"><title>design-categories-logo-design</title><path d="M49.997 95.01v-4.286c3.056 0 6.067-.336 8.995-.997l.943 4.182a45.149 45.149 0 0 1-9.938 1.101zm19.507-4.436l-1.86-3.862a40.74 40.74 0 0 0 7.664-4.809l2.666 3.356a45.025 45.025 0 0 1-8.47 5.315zm15.642-12.46L81.8 75.435a40.746 40.746 0 0 0 4.838-7.647l3.855 1.874a45.032 45.032 0 0 1-5.347 8.452zm8.666-17.788l-4.173-.979a40.817 40.817 0 0 0 1.075-8.986l4.286.036a45.103 45.103 0 0 1-1.188 9.93zm.141-20.02l-4.186.92a40.401 40.401 0 0 0-2.917-8.561l3.877-1.828a44.687 44.687 0 0 1 3.226 9.469zm-8.521-18.05l-3.373 2.645a40.976 40.976 0 0 0-6.339-6.462l2.71-3.321a45.263 45.263 0 0 1 7.002 7.139zM69.6 9.484l-1.87 3.857a40.406 40.406 0 0 0-8.53-3.01l.965-4.176A44.692 44.692 0 0 1 69.6 9.483zm-19.11-4.48l-.047 4.286-.436-.003a40.86 40.86 0 0 0-8.577.903l-.898-4.192A45.2 45.2 0 0 1 50.007 5c.242 0 .242 0 .482.003zm-19.553 4.22l1.817 3.883a40.72 40.72 0 0 0-7.718 4.725l-2.63-3.384a45.005 45.005 0 0 1 8.53-5.223zm-15.779 12.29l3.316 2.714a40.766 40.766 0 0 0-4.921 7.595l-3.834-1.917a45.052 45.052 0 0 1 5.44-8.393zM6.295 39.208l4.162 1.025a40.765 40.765 0 0 0-1.172 8.973L5 49.125a45.051 45.051 0 0 1 1.295-9.916zM5.94 59.234l4.196-.875a40.398 40.398 0 0 0 2.826 8.594l-3.896 1.786a44.684 44.684 0 0 1-3.126-9.505zm8.322 18.132l3.402-2.608a40.975 40.975 0 0 0 6.267 6.53l-2.745 3.292a45.26 45.26 0 0 1-6.924-7.214zm15.681 12.94l1.912-3.836a40.413 40.413 0 0 0 8.496 3.105l-1.012 4.165a44.7 44.7 0 0 1-9.396-3.435zM49.015 95l.091-4.286c.291.007.583.01.874.01l-.001 4.286c-.322 0-.643-.004-.964-.01zm30.639-51.342a.717.717 0 0 1 .786.567.737.737 0 0 1-.475.859c-4.382 1.467-16.169 6.045-18.054 9.567-1.98 3.699 3.358 13.646 5.582 17.166a.749.749 0 0 1-.195 1.007.698.698 0 0 1-.98-.178c-.074-.107-7.471-10.616-14.578-9.888-4.137.421-11.366 10.782-13.802 14.738a.707.707 0 0 1-.602.34.69.69 0 0 1-.347-.093.747.747 0 0 1-.293-.962c1.672-3.545 5.465-13.455 2.982-16.686-5.318-6.919-18.164-3.071-18.293-3.032a.71.71 0 0 1-.883-.483.74.74 0 0 1 .455-.917c3.758-1.288 13.649-5.368 14.725-8.873-.38-6.682-9.152-14.27-9.241-14.347a.75.75 0 0 1-.102-1.023.698.698 0 0 1 .99-.124c.113.09 11.344 8.885 19.347 6.222 8.842-2.941 13.055-15.463 13.096-15.59a.71.71 0 0 1 .859-.473c.362.1.587.474.513.853-.03.153-2.918 15.385.858 20.407 1.644 2.187 11.7 1.74 17.652.943zm-7.911-12.407a5.37 5.37 0 1 1-5.85 9.01 5.371 5.371 0 0 1-1.58-7.428 5.37 5.37 0 0 1 7.43-1.582zm-41.47 10.528a4.02 4.02 0 0 1 1.183 5.57 4.02 4.02 0 0 1-5.57 1.185 4.023 4.023 0 0 1-1.183-5.57 4.024 4.024 0 0 1 5.57-1.185zm3.786 17.906c1.658 1.209 2.13 3.704 1.053 5.572-1.077 1.868-3.293 2.397-4.954 1.185-1.66-1.212-2.128-3.705-1.052-5.57 1.077-1.869 3.293-2.399 4.953-1.187zm21.974 8.129a4.475 4.475 0 0 1 1.317 6.193 4.472 4.472 0 0 1-6.19 1.316 4.474 4.474 0 0 1-1.317-6.19 4.475 4.475 0 0 1 6.19-1.32zm15.222-14.325a4.475 4.475 0 0 1 1.317 6.191 4.476 4.476 0 1 1-1.317-6.191zm-22.794-29.4a5.366 5.366 0 0 1 1.582 7.429 5.37 5.37 0 0 1-7.428 1.58 5.369 5.369 0 0 1-1.58-7.429 5.366 5.366 0 0 1 7.426-1.58z" fill="#5D6D81"/></svg>