<svg width="100" height="100" viewBox="0 0 100 100" xmlns="http://www.w3.org/2000/svg"><title>design-categories-newsletter-design</title><g fill="none" fill-rule="evenodd"><path fill="#F5F5F5" d="M11 89h78V11H11z"/><path d="M37.812 21.595a.166.166 0 0 1 .184.121.155.155 0 0 1-.11.183c-1.024.312-3.774 1.286-4.214 2.035-.463.787.783 2.903 1.302 3.652a.15.15 0 0 1-.045.214.173.173 0 0 1-.229-.038c-.017-.022-1.743-2.258-3.402-2.103-.965.09-2.653 2.293-3.221 3.135a.173.173 0 0 1-.221.053.152.152 0 0 1-.069-.205c.39-.754 1.275-2.862.696-3.55-1.241-1.472-4.24-.653-4.27-.645a.169.169 0 0 1-.205-.102.154.154 0 0 1 .106-.196c.877-.274 3.185-1.142 3.436-1.887-.088-1.422-2.136-3.036-2.156-3.053a.15.15 0 0 1-.024-.217.174.174 0 0 1 .231-.026c.026.019 2.647 1.89 4.515 1.323 2.064-.626 3.047-3.29 3.056-3.316a.169.169 0 0 1 .2-.101c.085.021.138.1.12.181-.006.033-.68 3.273.2 4.342.385.465 2.731.37 4.12.2zm-1.846-2.64c.581.345.746 1.052.369 1.582-.376.529-1.153.68-1.734.336-.58-.344-.746-1.052-.369-1.58.377-.53 1.153-.68 1.734-.337zm-9.678 2.24c.436.257.56.79.276 1.186-.281.397-.863.51-1.3.252-.436-.258-.56-.789-.276-1.185.283-.398.865-.51 1.3-.252zm.883 3.81a.87.87 0 0 1 .246 1.185.823.823 0 0 1-1.156.252.87.87 0 0 1-.245-1.184.823.823 0 0 1 1.155-.253zm5.129 1.73c.484.286.622.876.307 1.317-.313.44-.96.567-1.444.28-.484-.287-.622-.876-.308-1.317.314-.441.961-.567 1.445-.28zm3.552-3.048c.485.286.622.876.308 1.317-.314.441-.96.567-1.445.28-.484-.285-.622-.875-.308-1.317.314-.441.961-.566 1.445-.28zm-5.32-6.255c.582.344.747 1.051.37 1.58-.377.53-1.153.68-1.734.337-.581-.344-.746-1.051-.369-1.58.377-.53 1.154-.68 1.734-.337z" fill="#5D6D81" fill-rule="nonzero"/><path d="M42 19h12m-12 4h35m-35 4h35" stroke="#5D6D81" stroke-width="2" stroke-linecap="round"/><path stroke="#5D6D81" stroke-width="2" d="M11 89h78V11H11z"/><path fill="#FFF" d="M18 82h65V34H18z"/><path stroke="#5D6D81" stroke-width="2" d="M18 82h65V34H18z"/><path d="M51 49h12" stroke="#EBB200" stroke-width="2" stroke-linecap="round"/><path d="M51 62h24" stroke="#5BAADC" stroke-width="2" stroke-linecap="round"/><path d="M51 55h24" stroke="#7DDEB1" stroke-width="2" stroke-linecap="round"/><path d="M51 69h24" stroke="#F08481" stroke-width="2" stroke-linecap="round"/><path fill="#6E8097" d="M24 69h22V49H24z"/><path stroke="#5D6D81" stroke-width="2" stroke-linecap="round" d="M24 69h22V49H24z"/><path d="M43.5 56a1.5 1.5 0 1 1 .001-3.001A1.5 1.5 0 0 1 43.5 56m-4-4a1.5 1.5 0 1 1 .001-3.001A1.5 1.5 0 0 1 39.5 52m0 8a1.5 1.5 0 1 1 .001-3.001A1.5 1.5 0 0 1 39.5 60m4 4a1.5 1.5 0 1 1 .001-3.001A1.5 1.5 0 0 1 43.5 64m-4 4a1.5 1.5 0 1 1 .001-3.001A1.5 1.5 0 0 1 39.5 68m-4-12a1.5 1.5 0 1 1 .001-3.001A1.5 1.5 0 0 1 35.5 56m-4-4a1.5 1.5 0 1 1 .001-3.001A1.5 1.5 0 0 1 31.5 52m0 8a1.5 1.5 0 1 1 .001-3.001A1.5 1.5 0 0 1 31.5 60m4 4a1.5 1.5 0 1 1 .001-3.001A1.5 1.5 0 0 1 35.5 64m-4 4a1.5 1.5 0 1 1 .001-3.001A1.5 1.5 0 0 1 31.5 68m-4-12a1.5 1.5 0 1 1 .001-3.001A1.5 1.5 0 0 1 27.5 56m0 8a1.5 1.5 0 1 1 .001-3.001A1.5 1.5 0 0 1 27.5 64" fill="#5D6D81"/></g></svg>