<svg width="100" height="100" viewBox="0 0 100 100" xmlns="http://www.w3.org/2000/svg"><title>design-categories-squarespace-design</title><g fill="none" fill-rule="evenodd"><path fill="#F4F4F4" d="M11 11h78v78H11z"/><path stroke="#5D6D81" stroke-width="2" d="M11 11h78v78H11z"/><path fill="#6E8097" d="M11 11h78v16.138H11z"/><path stroke="#5D6D81" stroke-width="2" d="M11 11h78v16.138H11z"/><path d="M72.862 36.552h6.724m-6.724 4.034h6.724m-6.724 4.034h6.724M20.414 58.069h28.241m5.379 0h12.104m5.379 0h8.07m-.001 6.724H51.345m-5.379 0H33.862m-5.379 0h-8.07m.001 6.724h28.241m5.379 0h12.104m5.379 0h8.07m-.001 6.724H51.345m-5.379 0H33.862m-5.379 0h-8.07" stroke="#5D6D81" stroke-width="2" stroke-linecap="round"/><path d="M23.103 19.069a4.034 4.034 0 1 1-8.068 0 4.034 4.034 0 0 1 8.068 0z" fill="#F08481"/><path d="M23.103 19.069a4.034 4.034 0 1 1-8.068 0 4.034 4.034 0 0 1 8.068 0z" stroke="#5D6D81" stroke-width="2"/><path d="M35.207 19.069a4.034 4.034 0 1 1-8.069 0 4.034 4.034 0 0 1 8.069 0z" fill="#EBB200"/><path d="M35.207 19.069a4.034 4.034 0 1 1-8.069 0 4.034 4.034 0 0 1 8.069 0z" stroke="#5D6D81" stroke-width="2"/><path d="M47.31 19.069a4.034 4.034 0 1 1-8.068 0 4.034 4.034 0 0 1 8.068 0z" fill="#7DDEB1"/><path d="M47.31 19.069a4.034 4.034 0 1 1-8.068 0 4.034 4.034 0 0 1 8.068 0z" stroke="#5D6D81" stroke-width="2"/><path d="M24.004 41.815c.392.392 1.093.392 1.542 0l6.811-6.812c.87-.869 2.187-.869 3.028 0 .392.393 1.093.393 1.541 0 .393-.392.393-1.093 0-1.541-1.653-1.654-4.4-1.654-6.054 0l-6.868 6.783c-.448.477-.448 1.093 0 1.57zm10.568-4.597c.392-.393.392-1.093 0-1.542-.393-.392-1.093-.392-1.542 0l-6.783 6.868c-.87.869-2.187.869-3.028 0-.869-.87-.869-2.187 0-3.028l6.7-6.7c-.87-.868-2.187-.868-3.028 0l-5.157 5.159c-1.654 1.653-1.654 4.4 0 6.054 1.653 1.654 4.4 1.654 6.054 0l6.784-6.811zm.813.757l-6.868 6.867c-.392.393-.392 1.093 0 1.542.393.392 1.093.392 1.542 0l6.811-6.812c.87-.869 2.187-.869 3.028 0 .84.87.869 2.187 0 3.028l-6.7 6.643c.87.87 2.187.87 3.028 0l5.214-5.214c1.653-1.653 1.653-4.4 0-6.054-1.71-1.654-4.401-1.654-6.055 0zm3.784 2.27c-.392-.392-1.093-.392-1.542 0l-6.811 6.868c-.87.869-2.187.869-3.028 0-.392-.393-1.093-.393-1.541 0-.393.392-.393 1.093 0 1.542 1.653 1.653 4.4 1.653 6.054 0l6.812-6.812c.448-.505.448-1.121.056-1.598z" fill="#5D6D81" fill-rule="nonzero"/></g></svg>