<svg width="100" height="100" viewBox="0 0 100 100" xmlns="http://www.w3.org/2000/svg"><title>design-categories-logo-businesscard</title><g fill="none" fill-rule="evenodd"><path d="M37.998 70.007V66.96c2.173 0 4.314-.239 6.397-.708l.67 2.973a32.106 32.106 0 0 1-7.067.783zm13.871-3.155l-1.322-2.746a28.97 28.97 0 0 0 5.45-3.42l1.896 2.387a32.018 32.018 0 0 1-6.024 3.78zm11.124-8.86l-2.38-1.905a28.975 28.975 0 0 0 3.44-5.438l2.742 1.333a32.023 32.023 0 0 1-3.802 6.01zm6.162-12.649l-2.967-.696c.488-2.079.746-4.218.764-6.39l3.048.026a32.074 32.074 0 0 1-.845 7.06zm.1-14.237l-2.976.654a28.73 28.73 0 0 0-2.075-6.087l2.757-1.3a31.777 31.777 0 0 1 2.295 6.733zm-6.06-12.835l-2.398 1.881a29.139 29.139 0 0 0-4.507-4.595l1.927-2.362a32.187 32.187 0 0 1 4.979 5.076zM51.938 9.188l-1.329 2.743a28.733 28.733 0 0 0-6.066-2.14l.686-2.97a31.781 31.781 0 0 1 6.71 2.367zm-13.59-3.186l-.033 3.048-.31-.002c-2.074 0-4.112.216-6.1.642l-.638-2.98a32.143 32.143 0 0 1 7.081-.708zM24.444 9.004l1.292 2.76a28.956 28.956 0 0 0-5.488 3.36l-1.87-2.406a32.004 32.004 0 0 1 6.066-3.714zm-11.22 8.738l2.358 1.93a28.989 28.989 0 0 0-3.5 5.401L9.356 23.71a32.037 32.037 0 0 1 3.868-5.968zM6.92 30.326l2.96.73a28.988 28.988 0 0 0-.834 6.38L6 37.378c.046-2.398.356-4.759.921-7.052zm-.253 14.24l2.984-.622a28.727 28.727 0 0 0 2.01 6.111l-2.772 1.27a31.775 31.775 0 0 1-2.222-6.759zm5.918 12.895l2.419-1.855a29.138 29.138 0 0 0 4.457 4.644l-1.953 2.34a32.185 32.185 0 0 1-4.923-5.13zm11.15 9.2l1.36-2.727c1.922.958 3.946 1.7 6.042 2.208l-.72 2.962a31.786 31.786 0 0 1-6.681-2.442zM37.3 70l.066-3.048c.206.005.414.007.621.007l-.001 3.048c-.229 0-.457-.002-.686-.007zm21.788-36.51a.51.51 0 0 1 .559.403.524.524 0 0 1-.338.611c-3.116 1.043-11.497 4.299-12.838 6.804-1.408 2.63 2.388 9.703 3.97 12.206a.532.532 0 0 1-.139.716.496.496 0 0 1-.697-.126c-.053-.076-5.313-7.55-10.367-7.032-2.941.3-8.082 7.667-9.815 10.48a.503.503 0 0 1-.427.243.49.49 0 0 1-.247-.066.531.531 0 0 1-.209-.684c1.189-2.522 3.887-9.568 2.12-11.867-3.781-4.92-12.916-2.183-13.008-2.155a.505.505 0 0 1-.627-.344.526.526 0 0 1 .323-.652c2.673-.916 9.706-3.817 10.472-6.31-.27-4.751-6.509-10.148-6.572-10.202a.533.533 0 0 1-.072-.727.496.496 0 0 1 .704-.088c.08.063 8.066 6.318 13.757 4.424 6.288-2.092 9.283-10.996 9.313-11.086a.505.505 0 0 1 .61-.336.523.523 0 0 1 .366.606c-.021.109-2.076 10.94.61 14.511 1.169 1.555 8.32 1.237 12.552.671zm-5.626-8.823a3.82 3.82 0 1 1-4.158 6.407 3.82 3.82 0 0 1 4.158-6.407zm-29.489 7.487a2.858 2.858 0 0 1 .84 3.96 2.858 2.858 0 0 1-3.96.844 2.86 2.86 0 0 1-.841-3.962 2.862 2.862 0 0 1 3.961-.842zm2.692 12.733c1.18.86 1.515 2.634.75 3.962-.767 1.329-2.343 1.705-3.524.843-1.18-.862-1.513-2.634-.748-3.96.766-1.33 2.342-1.707 3.522-.845zm15.626 5.78a3.182 3.182 0 1 1-3.463 5.34 3.182 3.182 0 0 1 3.463-5.34zm10.825-10.186a3.182 3.182 0 0 1 .936 4.403 3.183 3.183 0 1 1-.937-4.403zm-16.21-20.906a3.818 3.818 0 1 1-5.282 1.123 3.816 3.816 0 0 1 5.283-1.123z" fill="#5D6D81" fill-rule="nonzero"/><path d="M61.987 69.639a.295.295 0 0 0-.117-.08c-.288-.13-.696-.177-1.225-.14l-1.884 3.22c.477-.019 1.058-.332 1.742-.94.588-.523 1.031-1.04 1.33-1.55.157-.267.208-.438.154-.51m.153 2.348c-.314.613-.821 1.195-1.522 1.745a9.176 9.176 0 0 1-1.833 1.127c-.578.256-.97.377-1.176.364a.87.87 0 0 1-.312-.098c-.246-.128-.487-.352-.72-.672-.213-.275-.351-.524-.413-.748l3.118-6.085c.092-.138.22-.182.386-.132.02.004.15.096.39.277.048.032.245.059.592.081.346.023.62.087.822.19.248.129.45.316.607.56.089.147.204.399.347.758.208.521.276.99.203 1.41-.051.28-.214.687-.489 1.223m2.832 5.368a.61.61 0 0 1-.34.255c-.35.266-.79.489-1.32.669-.57.19-.97.226-1.2.11a.53.53 0 0 1-.09-.057 17.252 17.252 0 0 1-.696-.727c-.444-.51-.65-1.158-.613-1.946.037-.708.256-1.442.654-2.203.488-.93 1.098-1.658 1.832-2.185.78-.56 1.466-.709 2.06-.444.23.103.499.38.808.837.309.455.47.835.485 1.138.016.304-.158.864-.52 1.678a1.53 1.53 0 0 1-.339.481c-.177.174-.317.224-.417.152a5.378 5.378 0 0 1-.66-.568c-.304-.304-.45-.503-.437-.597a.215.215 0 0 1 .022-.085.44.44 0 0 1 .173-.152.444.444 0 0 0 .173-.154 5.83 5.83 0 0 0 .384-.63c.153-.292.225-.512.215-.66-.473.074-.952.356-1.433.847-.407.415-.772.931-1.097 1.551a6.52 6.52 0 0 0-.542 1.346c-.11.418-.126.697-.047.837.04.063.258.03.657-.1.398-.13.675-.256.833-.375.009-.003.082-.08.22-.232.087-.084.165-.122.235-.116.115.015.323.223.625.622.303.399.427.635.375.708" fill="#000"/><path d="M72.5 78.762c-3.046 5.97-11.145 8.58-17.06 5.504-5.914-3.075-8.095-11.028-5.049-16.998 3.047-5.97 10.265-7.888 16.18-4.814 5.915 3.075 8.976 10.338 5.93 16.308z" stroke="#5D6D81" stroke-width="4" stroke-dasharray="9.509,9.509"/><path d="M32.154 93.32a2.625 2.625 0 0 1-2.614-2.637V55.886a2.625 2.625 0 0 1 2.614-2.636h59.058a2.625 2.625 0 0 1 2.615 2.636v34.797a2.625 2.625 0 0 1-2.615 2.636H32.154z" fill="#F5F5F5"/><path d="M91.212 93.32H32.154a2.625 2.625 0 0 1-2.614-2.637V55.886a2.625 2.625 0 0 1 2.614-2.636h59.058a2.625 2.625 0 0 1 2.615 2.636v34.797a2.625 2.625 0 0 1-2.615 2.636z" stroke="#5D6D81" stroke-width="2"/><path d="M34.085 67.468h9.74m5.195 0h9.741M34.085 79.101h9.74m5.195 0h9.741" stroke="#5D6D81" stroke-width="2" stroke-linecap="round"/><path d="M34.085 84.918h.65" stroke="#EBB200" stroke-width="2" stroke-linecap="round"/><path d="M39.93 84.918h2.597" stroke="#F08481" stroke-width="2" stroke-linecap="round"/><path d="M47.072 85.24h.65" stroke="#7DDEB1" stroke-width="2" stroke-linecap="round"/><path d="M52.917 84.918h2.597" stroke="#5BAADC" stroke-width="2" stroke-linecap="round"/><path d="M34.085 61.975h9.74m5.195-.323h9.741M34.085 73.285h9.74m5.195 0h9.741" stroke="#5D6D81" stroke-width="2" stroke-linecap="round"/><path d="M77.582 85.003V83.86c.815 0 1.618-.09 2.4-.266l.25 1.115a12.04 12.04 0 0 1-2.65.294zm5.202-1.183l-.496-1.03a10.86 10.86 0 0 0 2.044-1.282l.711.894a12.007 12.007 0 0 1-2.259 1.418zm4.172-3.323l-.893-.714c.505-.63.938-1.314 1.29-2.04l1.028.5a12.02 12.02 0 0 1-1.425 2.254zm2.31-4.743l-1.112-.261c.183-.78.28-1.582.286-2.397l1.143.01c-.007.9-.114 1.786-.316 2.648zm.038-5.34l-1.116.246a10.774 10.774 0 0 0-.778-2.283l1.034-.487c.38.805.668 1.65.86 2.525zm-2.272-4.812l-.9.705a10.927 10.927 0 0 0-1.69-1.723l.723-.886a12.07 12.07 0 0 1 1.867 1.904zm-4.222-3.407l-.499 1.029a10.775 10.775 0 0 0-2.274-.803l.257-1.113c.872.201 1.715.5 2.516.887zm-5.096-1.194l-.012 1.143-.117-.001c-.777 0-1.542.081-2.287.24l-.24-1.117A12.054 12.054 0 0 1 77.586 61h.129zM72.5 62.126l.484 1.036c-.73.342-1.42.765-2.058 1.26l-.701-.903a12.001 12.001 0 0 1 2.275-1.393zm-4.208 3.277l.885.724a10.87 10.87 0 0 0-1.313 2.026l-1.022-.512a12.04 12.04 0 0 1 1.45-2.238zm-2.363 4.72l1.11.273a10.87 10.87 0 0 0-.313 2.393l-1.143-.022c.018-.9.134-1.785.346-2.645zm-.095 5.34l1.119-.234c.165.792.418 1.56.753 2.292l-1.039.476a11.97 11.97 0 0 1-.833-2.535zm2.219 4.835l.907-.696c.491.64 1.052 1.225 1.671 1.742l-.732.877a12.07 12.07 0 0 1-1.846-1.923zm4.182 3.45l.51-1.023c.72.36 1.48.637 2.265.828l-.27 1.111a11.92 11.92 0 0 1-2.505-.916zM77.32 85l.024-1.143c.078.002.155.003.233.003v1.143c-.086 0-.172-.001-.257-.003zm8.17-13.691a.191.191 0 0 1 .21.15.197.197 0 0 1-.127.23c-1.169.391-4.312 1.612-4.815 2.551-.528.987.896 3.64 1.49 4.578a.2.2 0 0 1-.053.268.186.186 0 0 1-.261-.047c-.02-.029-1.993-2.831-3.888-2.637-1.103.112-3.03 2.875-3.68 3.93a.189.189 0 0 1-.16.091.184.184 0 0 1-.093-.025.2.2 0 0 1-.078-.256c.445-.946 1.457-3.588.795-4.45-1.418-1.845-4.844-.82-4.878-.809a.19.19 0 0 1-.236-.128.197.197 0 0 1 .122-.245c1.002-.343 3.64-1.431 3.926-2.366-.101-1.782-2.44-3.806-2.464-3.826a.2.2 0 0 1-.027-.273.186.186 0 0 1 .264-.033c.03.024 3.025 2.37 5.159 1.66 2.358-.785 3.481-4.124 3.492-4.158a.19.19 0 0 1 .23-.126.196.196 0 0 1 .136.227c-.008.041-.778 4.103.229 5.442.438.583 3.12.464 4.707.252zM83.38 68a1.432 1.432 0 1 1-1.56 2.403A1.432 1.432 0 0 1 83.382 68zm-11.058 2.808c.498.322.64.988.315 1.485a1.073 1.073 0 1 1-.315-1.485zm1.01 4.775c.442.322.568.987.28 1.485-.287.499-.878.64-1.32.316-.443-.323-.568-.987-.282-1.485.288-.498.879-.64 1.321-.316zm5.859 2.167a1.193 1.193 0 1 1-1.299 2.003 1.193 1.193 0 0 1 1.299-2.003zm4.06-3.82a1.193 1.193 0 1 1-1.3 2.002 1.193 1.193 0 0 1 1.3-2.002zm-6.079-7.84a1.43 1.43 0 1 1-1.559 2.403 1.432 1.432 0 1 1 1.559-2.403z" fill="#5D6D81" fill-rule="nonzero"/></g></svg>