<svg width="100" height="100" viewBox="0 0 100 100" xmlns="http://www.w3.org/2000/svg"><title>design-categories-website-design</title><g fill="none" fill-rule="evenodd"><path fill="#F5F5F5" d="M10 90h80V10H10z"/><path d="M9 91V9h82v82H9zm2-2h78V11H11v78z" fill="#5D6D81" fill-rule="nonzero"/><path fill="#6E8097" d="M10 26.41h80V10H10z"/><path d="M9 27.41V9h82v18.41H9zm2-2h78V11H11v14.41z" fill="#5D6D81" fill-rule="nonzero"/><path d="M22.308 18.205a4.102 4.102 0 1 1-8.205 0 4.102 4.102 0 0 1 8.205 0" fill="#F08481"/><path d="M21.308 18.205a3.102 3.102 0 1 0-6.205 0 3.102 3.102 0 0 0 6.205 0zm2 0a5.102 5.102 0 1 1-10.205 0 5.102 5.102 0 0 1 10.205 0z" fill="#5D6D81" fill-rule="nonzero"/><path d="M34.615 18.205a4.102 4.102 0 1 1-8.204 0 4.102 4.102 0 0 1 8.204 0" fill="#EBB200"/><path d="M33.615 18.205a3.102 3.102 0 1 0-6.204 0 3.102 3.102 0 0 0 6.204 0zm2 0a5.102 5.102 0 1 1-10.204 0 5.102 5.102 0 0 1 10.204 0z" fill="#5D6D81" fill-rule="nonzero"/><path d="M46.923 18.205a4.102 4.102 0 1 1-8.204 0 4.102 4.102 0 0 1 8.204 0" fill="#7DDEB1"/><path d="M45.923 18.205a3.102 3.102 0 1 0-6.204 0 3.102 3.102 0 0 0 6.204 0zm2 0a5.102 5.102 0 1 1-10.204 0 5.102 5.102 0 0 1 10.204 0z" fill="#5D6D81" fill-rule="nonzero"/><path fill="#FFF" d="M18.205 81.795h63.59v-7.18h-63.59z"/><path d="M17.205 82.795v-9.18h65.59v9.18h-65.59zm63.59-2v-5.18h-61.59v5.18h61.59z" fill="#5D6D81" fill-rule="nonzero"/><path fill="#FFF" d="M42.82 50h38.975V34.615H42.82z"/><path d="M41.82 49.974V32.59h40.975v17.384H41.82zm38.975-2V34.59H43.82v13.384h36.974zM18.205 58.18a1 1 0 0 1 0-2h28.718a1 1 0 1 1 0 2H18.205zm0 5.128a1 1 0 1 1 0-2h63.59a1 1 0 0 1 0 2h-63.59zm0 5.128a1 1 0 1 1 0-2h63.59a1 1 0 0 1 0 2h-63.59z" fill="#5D6D81" fill-rule="nonzero"/><path d="M79.23 36.667a1.538 1.538 0 1 1 0-3.077 1.538 1.538 0 0 1 0 3.077m0 8.205a1.538 1.538 0 1 1 0-3.077 1.538 1.538 0 0 1 0 3.077m-4.102-4.102a1.538 1.538 0 1 1 0-3.077 1.538 1.538 0 0 1 0 3.076m-4.102-4.102a1.538 1.538 0 1 1 0-3.077 1.538 1.538 0 0 1 0 3.077m0 8.205a1.538 1.538 0 1 1 0-3.077 1.538 1.538 0 0 1 0 3.077m4.102 4.102a1.538 1.538 0 1 1 0-3.076 1.538 1.538 0 0 1 0 3.076m-8.205-8.204a1.538 1.538 0 1 1 0-3.077 1.538 1.538 0 0 1 0 3.076m-4.103-4.102a1.538 1.538 0 1 1 0-3.077 1.538 1.538 0 0 1 0 3.077m0 8.205a1.538 1.538 0 1 1 0-3.077 1.538 1.538 0 0 1 0 3.077m4.103 4.102a1.538 1.538 0 1 1 0-3.076 1.538 1.538 0 0 1 0 3.076m-8.205-8.204a1.538 1.538 0 1 1 0-3.077 1.538 1.538 0 0 1 0 3.076m-4.103-4.102a1.538 1.538 0 1 1 0-3.077 1.538 1.538 0 0 1 0 3.077m0 8.205a1.538 1.538 0 1 1 0-3.077 1.538 1.538 0 0 1 0 3.077m4.103 4.102a1.538 1.538 0 1 1 0-3.076 1.538 1.538 0 0 1 0 3.076m-8.205-8.204a1.538 1.538 0 1 1 0-3.077 1.538 1.538 0 0 1 0 3.076m-4.103-4.102a1.538 1.538 0 1 1 0-3.077 1.538 1.538 0 0 1 0 3.077m0 8.205a1.538 1.538 0 1 1 0-3.077 1.538 1.538 0 0 1 0 3.077m4.103 4.102a1.538 1.538 0 1 1 0-3.076 1.538 1.538 0 0 1 0 3.076" fill="#5D6D81"/><path d="M27.61 51.447v-1c.713 0 1.416-.079 2.1-.233l.22.976c-.756.17-1.532.257-2.32.257zm4.552-1.035l-.434-.901a9.506 9.506 0 0 0 1.788-1.122l.622.783c-.61.485-1.273.901-1.976 1.24zm3.65-2.908l-.78-.625c.44-.55.82-1.15 1.128-1.784l.9.437a10.52 10.52 0 0 1-1.248 1.972zm2.022-4.15l-.974-.229c.16-.682.245-1.384.251-2.096l1 .008c-.007.787-.1 1.563-.277 2.317zm.033-4.672l-.977.215a9.427 9.427 0 0 0-.68-1.997l.904-.427c.332.704.585 1.445.753 2.21zm-1.988-4.211l-.787.617a9.561 9.561 0 0 0-1.48-1.508l.633-.775a10.561 10.561 0 0 1 1.634 1.666zm-3.695-2.98l-.436.9a9.428 9.428 0 0 0-1.99-.703l.225-.974c.763.176 1.5.437 2.201.776zm-4.459-1.046l-.01 1h-.102c-.68 0-1.35.07-2.002.21l-.209-.978c.72-.154 1.46-.233 2.21-.233l.113.001zm-4.562.985l.424.906c-.64.3-1.243.67-1.8 1.102l-.614-.79a10.501 10.501 0 0 1 1.99-1.218zm-3.682 2.867l.774.634a9.512 9.512 0 0 0-1.148 1.772l-.895-.447c.35-.698.775-1.355 1.27-1.959zm-2.068 4.13l.971.239a9.512 9.512 0 0 0-.273 2.093l-1-.019c.015-.786.117-1.561.302-2.313zm-.083 4.672l.98-.204c.144.693.365 1.365.659 2.005l-.91.417a10.426 10.426 0 0 1-.729-2.218zm1.942 4.23l.794-.608c.43.56.92 1.072 1.462 1.524l-.64.768a10.56 10.56 0 0 1-1.616-1.683zm3.659 3.02l.446-.895a9.43 9.43 0 0 0 1.982.725l-.236.971a10.43 10.43 0 0 1-2.192-.801zm4.45 1.095l.022-1c.067.002.135.003.204.003v1c-.076 0-.15-.001-.226-.003zm7.15-11.98a.167.167 0 0 1 .183.133.172.172 0 0 1-.111.2c-1.023.343-3.773 1.41-4.213 2.233-.462.863.784 3.184 1.303 4.005a.174.174 0 0 1-.046.235.163.163 0 0 1-.228-.042c-.018-.024-1.744-2.477-3.402-2.307-.965.099-2.652 2.516-3.22 3.44a.165.165 0 0 1-.14.079.16.16 0 0 1-.082-.022.174.174 0 0 1-.068-.225c.39-.827 1.275-3.14.696-3.893-1.241-1.614-4.239-.717-4.269-.708a.166.166 0 0 1-.206-.112.172.172 0 0 1 .106-.214c.877-.3 3.185-1.253 3.436-2.07-.088-1.56-2.135-3.33-2.156-3.348a.175.175 0 0 1-.024-.239.163.163 0 0 1 .231-.029c.027.021 2.647 2.073 4.515 1.452 2.063-.686 3.046-3.608 3.055-3.638a.166.166 0 0 1 .2-.11.17.17 0 0 1 .12.199c-.006.036-.68 3.59.2 4.762.384.51 2.73.405 4.12.22zm-1.847-2.894a1.253 1.253 0 1 1-1.364 2.102 1.253 1.253 0 0 1 1.364-2.102zm-9.676 2.456c.436.282.56.865.276 1.3a.939.939 0 1 1-.276-1.3zm.883 4.178c.387.282.498.865.246 1.3-.251.436-.768.56-1.156.277-.387-.283-.496-.865-.245-1.3.251-.436.768-.56 1.155-.277zm5.128 1.897a1.044 1.044 0 1 1-1.137 1.752 1.044 1.044 0 0 1 1.137-1.752zm3.552-3.342a1.044 1.044 0 1 1-1.137 1.751 1.044 1.044 0 0 1 1.137-1.751zm-5.319-6.86A1.252 1.252 0 1 1 25.888 37a1.253 1.253 0 1 1 1.364-2.102z" fill="#5D6D81" fill-rule="nonzero"/></g></svg>