<svg width="100" height="100" viewBox="0 0 100 100" xmlns="http://www.w3.org/2000/svg"><title>design-categories-shopify-design</title><g fill="none" fill-rule="evenodd"><path fill="#F4F4F4" d="M11 11h78v78H11z"/><path stroke="#5D6D81" stroke-width="2" d="M11 11h78v78H11z"/><path fill="#6E8097" d="M11 11h78v16.138H11z"/><path stroke="#5D6D81" stroke-width="2" d="M11 11h78v16.138H11z"/><path d="M23.316 19.069c0 2.228-1.838 4.034-4.105 4.034-2.268 0-4.106-1.806-4.106-4.034 0-2.228 1.838-4.035 4.106-4.035 2.267 0 4.105 1.807 4.105 4.035z" fill="#F08481"/><path d="M23.316 19.069c0 2.228-1.838 4.034-4.105 4.034-2.268 0-4.106-1.806-4.106-4.034 0-2.228 1.838-4.035 4.106-4.035 2.267 0 4.105 1.807 4.105 4.035z" stroke="#5D6D81" stroke-width="2"/><path d="M35.632 19.069c0 2.228-1.838 4.034-4.106 4.034-2.267 0-4.105-1.806-4.105-4.034 0-2.228 1.838-4.035 4.105-4.035 2.268 0 4.106 1.807 4.106 4.035z" fill="#EBB200"/><path d="M35.632 19.069c0 2.228-1.838 4.034-4.106 4.034-2.267 0-4.105-1.806-4.105-4.034 0-2.228 1.838-4.035 4.105-4.035 2.268 0 4.106 1.807 4.106 4.035z" stroke="#5D6D81" stroke-width="2"/><path d="M47.947 19.069c0 2.228-1.837 4.034-4.105 4.034-2.267 0-4.105-1.806-4.105-4.034 0-2.228 1.838-4.035 4.105-4.035 2.268 0 4.105 1.807 4.105 4.035z" fill="#7DDEB1"/><path d="M47.947 19.069c0 2.228-1.837 4.034-4.105 4.034-2.267 0-4.105-1.806-4.105-4.034 0-2.228 1.838-4.035 4.105-4.035 2.268 0 4.105 1.807 4.105 4.035z" stroke="#5D6D81" stroke-width="2"/><path fill="#6E8097" d="M16.474 70.172h17.79v13.449h-17.79z"/><path stroke="#5D6D81" stroke-width="2" d="M16.474 70.172h17.79v13.449h-17.79z"/><path fill="#6E8097" d="M41.105 70.172h17.79v13.449h-17.79z"/><path stroke="#5D6D81" stroke-width="2" d="M41.105 70.172h17.79v13.449h-17.79z"/><path fill="#FFF" d="M16.474 51.345h17.79v13.448h-17.79z"/><path stroke="#5D6D81" stroke-width="2" d="M16.474 51.345h17.79v13.448h-17.79z"/><path fill="#FFF" d="M65.737 70.172h17.79v13.449h-17.79z"/><path stroke="#5D6D81" stroke-width="2" d="M65.737 70.172h17.79v13.449h-17.79z"/><path fill="#6E8097" d="M41.105 51.345h17.79v13.448h-17.79z"/><g fill-rule="nonzero"><path d="M56.8 33.256c-.01-.094-.094-.136-.156-.136-.063 0-1.43-.104-1.43-.104s-.948-.95-1.063-1.043c-.105-.104-.303-.073-.386-.052-.01 0-.209.062-.532.167-.323-.929-.876-1.773-1.867-1.773h-.094c-.271-.355-.626-.522-.918-.522-2.294 0-3.4 2.868-3.744 4.329-.897.281-1.534.469-1.607.5-.5.157-.51.167-.573.636-.052.355-1.356 10.441-1.356 10.441l10.148 1.898 5.508-1.189c.01-.02-1.92-13.058-1.93-13.152zm-4.13-1.022c-.25.073-.553.167-.856.27v-.187c0-.563-.073-1.022-.208-1.387.521.062.845.636 1.064 1.304zm-1.7-1.19c.135.355.229.856.229 1.544v.105c-.563.177-1.158.354-1.773.552.344-1.314 1.001-1.96 1.544-2.2zm-.668-.646c.104 0 .209.042.292.104-.74.344-1.523 1.21-1.846 2.962-.49.157-.96.292-1.408.439.375-1.336 1.314-3.505 2.962-3.505z" fill="#6E8097"/><path d="M56.644 33.1c-.063 0-1.43-.105-1.43-.105s-.948-.95-1.063-1.043a.202.202 0 0 0-.136-.063l-.761 15.708 5.507-1.189s-1.93-13.058-1.94-13.152a.282.282 0 0 0-.177-.157z" fill="#5D6D81"/><path d="M51.366 36.145l-.668 2.013s-.605-.323-1.324-.323c-1.075 0-1.127.678-1.127.845 0 .917 2.4 1.272 2.4 3.431 0 1.7-1.075 2.795-2.525 2.795-1.752 0-2.628-1.084-2.628-1.084l.469-1.544s.918.793 1.69.793c.51 0 .72-.397.72-.689 0-1.2-1.961-1.251-1.961-3.233 0-1.658 1.189-3.265 3.598-3.265.897-.01 1.356.261 1.356.261z" fill="#FFF"/></g><path stroke="#5D6D81" stroke-width="2" d="M41.105 51.345h17.79v13.448h-17.79z"/><path fill="#6E8097" d="M65.737 51.345h17.79v13.448h-17.79z"/><path stroke="#5D6D81" stroke-width="2" d="M65.737 51.345h17.79v13.448h-17.79z"/><path d="M80.79 74.207a1.357 1.357 0 0 1-1.369-1.345c0-.742.613-1.345 1.368-1.345.756 0 1.369.603 1.369 1.345s-.613 1.345-1.369 1.345m-4.105 4.034a1.357 1.357 0 0 1-1.368-1.344c0-.743.613-1.345 1.368-1.345.756 0 1.369.602 1.369 1.345 0 .742-.613 1.344-1.369 1.344m4.106 4.035a1.357 1.357 0 0 1-1.369-1.345c0-.742.613-1.345 1.368-1.345.756 0 1.369.603 1.369 1.345s-.613 1.345-1.369 1.345m-8.21-8.069a1.357 1.357 0 0 1-1.368-1.345c0-.742.613-1.345 1.368-1.345.755 0 1.368.603 1.368 1.345s-.613 1.345-1.368 1.345m-4.105 4.034a1.357 1.357 0 0 1-1.369-1.344c0-.743.613-1.345 1.369-1.345.755 0 1.368.602 1.368 1.345 0 .742-.613 1.344-1.368 1.344m4.105 4.035a1.357 1.357 0 0 1-1.368-1.345c0-.742.613-1.345 1.368-1.345.755 0 1.368.603 1.368 1.345s-.613 1.345-1.368 1.345M19.21 60.759c.756 0 1.369.602 1.369 1.344 0 .743-.613 1.345-1.368 1.345a1.357 1.357 0 0 1-1.369-1.345c0-.742.613-1.344 1.369-1.344m4.105-4.035c.755 0 1.368.603 1.368 1.345s-.613 1.345-1.368 1.345a1.357 1.357 0 0 1-1.369-1.345c0-.742.613-1.345 1.369-1.345M19.21 52.69c.756 0 1.369.602 1.369 1.344 0 .743-.613 1.345-1.368 1.345a1.357 1.357 0 0 1-1.369-1.345c0-.742.613-1.344 1.369-1.344m8.21 8.069c.755 0 1.368.602 1.368 1.344 0 .743-.613 1.345-1.368 1.345a1.357 1.357 0 0 1-1.368-1.345c0-.742.613-1.344 1.368-1.344m4.105-4.035c.756 0 1.369.603 1.369 1.345s-.613 1.345-1.369 1.345a1.357 1.357 0 0 1-1.368-1.345c0-.742.613-1.345 1.368-1.345m-4.105-4.034c.755 0 1.368.602 1.368 1.344 0 .743-.613 1.345-1.368 1.345a1.357 1.357 0 0 1-1.368-1.345c0-.742.613-1.344 1.368-1.344" fill="#5D6D81"/></g></svg>