<svg width="100" height="100" viewBox="0 0 100 100" xmlns="http://www.w3.org/2000/svg"><title>design-categories-email-marketing-design</title><g fill="none" fill-rule="evenodd"><path fill="#F5F5F5" d="M11.013 89h77.974V11H11.013z"/><path stroke="#5D6D81" stroke-width="2" d="M11.013 89h77.974V11H11.013z"/><path fill="#6E8097" d="M11.013 27.64h77.974V11H11.013z"/><path stroke="#5D6D81" stroke-width="2" d="M11.013 27.64h77.974V11H11.013z"/><path fill="#FFF" d="M72.352 82.76H82.75V33.88H72.352z"/><path stroke="#5D6D81" stroke-width="2" d="M72.352 82.76H82.75V33.88H72.352z"/><path fill="#FFF" d="M18.29 82.76h10.397V33.88H18.291z"/><path stroke="#5D6D81" stroke-width="2" d="M18.29 82.76h10.397V33.88H18.291z"/><path d="M23.49 19.32a4.159 4.159 0 1 1-8.318 0 4.159 4.159 0 1 1 8.317 0z" fill="#F08481"/><path d="M23.49 19.32a4.159 4.159 0 1 1-8.318 0 4.159 4.159 0 1 1 8.317 0z" stroke="#5D6D81" stroke-width="2"/><path d="M35.965 19.32a4.159 4.159 0 1 1-8.317 0 4.159 4.159 0 1 1 8.317 0" fill="#EBB200"/><path d="M35.965 19.32a4.159 4.159 0 1 1-8.317 0 4.159 4.159 0 1 1 8.317 0z" stroke="#5D6D81" stroke-width="2"/><path d="M48.44 19.32a4.159 4.159 0 1 1-8.317 0 4.159 4.159 0 1 1 8.318 0" fill="#7DDEB1"/><path d="M48.44 19.32a4.159 4.159 0 1 1-8.317 0 4.159 4.159 0 1 1 8.318 0z" stroke="#5D6D81" stroke-width="2"/><path fill="#6E8097" d="M35.965 82.76h30.15v-8.32h-30.15z"/><path stroke="#5D6D81" stroke-width="2" d="M35.965 82.76h30.15v-8.32h-30.15z"/><path d="M35.965 60.92h30.15" stroke="#5D6D81" stroke-width="2" stroke-linecap="round"/><path d="M49.871 55.229v-1c.713 0 1.416-.079 2.1-.233l.22.976c-.756.17-1.533.257-2.32.257zm4.552-1.035l-.434-.901a9.506 9.506 0 0 0 1.788-1.122l.622.783c-.61.485-1.273.901-1.976 1.24zm3.65-2.907l-.781-.625c.441-.552.82-1.15 1.129-1.785l.9.437c-.342.702-.76 1.364-1.248 1.973zm2.022-4.15l-.974-.23c.16-.681.245-1.383.25-2.096l1 .008a10.54 10.54 0 0 1-.276 2.317zm.033-4.672l-.977.214a9.427 9.427 0 0 0-.68-1.997l.904-.427c.332.705.585 1.445.753 2.21zm-1.989-4.212l-.787.617a9.561 9.561 0 0 0-1.479-1.508l.633-.774a10.561 10.561 0 0 1 1.633 1.665zm-3.694-2.98l-.436.9a9.428 9.428 0 0 0-1.99-.703l.225-.974c.763.176 1.5.437 2.201.777zm-4.459-1.046l-.01 1h-.102c-.68 0-1.35.07-2.002.21l-.21-.978a10.58 10.58 0 0 1 2.212-.232h.112zm-4.562.985l.424.906c-.64.3-1.243.67-1.801 1.103l-.614-.79a10.501 10.501 0 0 1 1.99-1.219zm-3.682 2.867l.774.634a9.512 9.512 0 0 0-1.148 1.772l-.895-.447c.349-.698.775-1.355 1.27-1.959zm-2.068 4.13l.971.239a9.512 9.512 0 0 0-.273 2.094l-1-.02c.015-.786.117-1.56.302-2.313zm-.083 4.672l.98-.204c.144.693.365 1.365.658 2.005l-.909.417a10.426 10.426 0 0 1-.729-2.218zm1.942 4.231l.794-.608c.43.56.92 1.071 1.462 1.523l-.64.768a10.56 10.56 0 0 1-1.616-1.683zm3.659 3.02l.446-.896a9.43 9.43 0 0 0 1.982.725l-.236.972a10.43 10.43 0 0 1-2.192-.802zm4.45 1.095l.021-1 .204.002v1c-.075 0-.15 0-.225-.002zm7.15-11.98a.167.167 0 0 1 .183.132.172.172 0 0 1-.111.2c-1.023.343-3.773 1.411-4.213 2.233-.462.863.784 3.184 1.303 4.005a.175.175 0 0 1-.046.235.163.163 0 0 1-.228-.041c-.018-.025-1.744-2.477-3.402-2.308-.965.099-2.652 2.516-3.22 3.44a.165.165 0 0 1-.141.079.16.16 0 0 1-.08-.022.174.174 0 0 1-.07-.224c.39-.828 1.276-3.14.696-3.894-1.24-1.614-4.238-.717-4.268-.707a.166.166 0 0 1-.206-.113.172.172 0 0 1 .106-.214c.877-.3 3.185-1.252 3.436-2.07-.089-1.56-2.135-3.33-2.156-3.348a.175.175 0 0 1-.024-.239.163.163 0 0 1 .231-.029c.026.021 2.647 2.074 4.514 1.452 2.063-.686 3.046-3.608 3.056-3.637a.166.166 0 0 1 .2-.11.17.17 0 0 1 .12.198c-.007.036-.68 3.59.2 4.762.384.51 2.73.406 4.12.22zm-1.847-2.895a1.253 1.253 0 1 1-1.364 2.102 1.253 1.253 0 0 1 1.364-2.102zm-9.676 2.456c.436.282.56.865.276 1.3a.939.939 0 1 1-.276-1.3zm.883 4.179c.387.282.498.864.246 1.3-.251.436-.768.559-1.156.276-.387-.283-.497-.864-.245-1.3.251-.436.768-.56 1.155-.276zm5.128 1.896a1.044 1.044 0 1 1-1.137 1.752 1.044 1.044 0 0 1 1.137-1.752zm3.551-3.342a1.044 1.044 0 1 1-1.136 1.752 1.044 1.044 0 0 1 1.136-1.752zm-5.318-6.86a1.252 1.252 0 1 1-1.364 2.102 1.253 1.253 0 1 1 1.364-2.102z" fill="#5D6D81" fill-rule="nonzero"/><path d="M35.965 67.16h30.15" stroke="#5D6D81" stroke-width="2" stroke-linecap="round"/><path d="M25.568 37.52a1.56 1.56 0 1 1-3.12 0 1.56 1.56 0 0 1 3.12 0m-4.158 4.16a1.56 1.56 0 1 1-3.12 0 1.56 1.56 0 0 1 3.12 0m8.317 0a1.56 1.56 0 1 1-3.12 0 1.56 1.56 0 0 1 3.12 0m-4.159 3.12a1.56 1.56 0 1 1-3.12 0 1.56 1.56 0 0 1 3.12 0m-4.158 4.16a1.56 1.56 0 1 1-3.12 0 1.56 1.56 0 0 1 3.12 0m8.317 0a1.56 1.56 0 1 1-3.12 0 1.56 1.56 0 0 1 3.12 0m-4.159 4.16a1.56 1.56 0 1 1-3.12 0 1.56 1.56 0 0 1 3.12 0m-4.158 4.16a1.56 1.56 0 1 1-3.12 0 1.56 1.56 0 0 1 3.12 0m8.317 0a1.56 1.56 0 1 1-3.12 0 1.56 1.56 0 0 1 3.12 0m-4.159 4.16a1.56 1.56 0 1 1-3.12 0 1.56 1.56 0 0 1 3.12 0M21.41 65.6a1.56 1.56 0 1 1-3.12 0 1.56 1.56 0 0 1 3.12 0m8.317 0a1.56 1.56 0 1 1-3.12 0 1.56 1.56 0 0 1 3.12 0m-4.159 4.16a1.56 1.56 0 1 1-3.12 0 1.56 1.56 0 0 1 3.12 0m-4.158 4.16a1.56 1.56 0 1 1-3.12 0 1.56 1.56 0 0 1 3.12 0m8.317 0a1.56 1.56 0 1 1-3.12 0 1.56 1.56 0 0 1 3.12 0m-4.159 4.16a1.56 1.56 0 1 1-3.12 0 1.56 1.56 0 0 1 3.12 0m-4.158 4.16a1.56 1.56 0 1 1-3.12 0 1.56 1.56 0 0 1 3.12 0m8.317 0a1.56 1.56 0 1 1-3.12 0 1.56 1.56 0 0 1 3.12 0M79.63 37.52a1.56 1.56 0 1 1-3.12 0 1.56 1.56 0 0 1 3.12 0m-4.159 4.16a1.56 1.56 0 1 1-3.12 0 1.56 1.56 0 0 1 3.12 0m8.317 0a1.56 1.56 0 1 1-3.12 0 1.56 1.56 0 0 1 3.12 0M79.63 44.8a1.56 1.56 0 1 1-3.12 0 1.56 1.56 0 0 1 3.12 0m-4.159 4.16a1.56 1.56 0 1 1-3.12 0 1.56 1.56 0 0 1 3.12 0m8.317 0a1.56 1.56 0 1 1-3.12 0 1.56 1.56 0 0 1 3.12 0m-4.158 4.16a1.56 1.56 0 1 1-3.12 0 1.56 1.56 0 0 1 3.12 0m-4.159 4.16a1.56 1.56 0 1 1-3.12 0 1.56 1.56 0 0 1 3.12 0m8.317 0a1.56 1.56 0 1 1-3.12 0 1.56 1.56 0 0 1 3.12 0m-4.158 4.16a1.56 1.56 0 1 1-3.12 0 1.56 1.56 0 0 1 3.12 0m-4.159 4.16a1.56 1.56 0 1 1-3.12 0 1.56 1.56 0 0 1 3.12 0m8.317 0a1.56 1.56 0 1 1-3.12 0 1.56 1.56 0 0 1 3.12 0m-4.158 4.16a1.56 1.56 0 1 1-3.12 0 1.56 1.56 0 0 1 3.12 0m-4.159 4.16a1.56 1.56 0 1 1-3.12 0 1.56 1.56 0 0 1 3.12 0m8.317 0a1.56 1.56 0 1 1-3.12 0 1.56 1.56 0 0 1 3.12 0m-4.158 4.16a1.56 1.56 0 1 1-3.12 0 1.56 1.56 0 0 1 3.12 0m-4.159 4.16a1.56 1.56 0 1 1-3.12 0 1.56 1.56 0 0 1 3.12 0m8.317 0a1.56 1.56 0 1 1-3.12 0 1.56 1.56 0 0 1 3.12 0" fill="#5D6D81"/></g></svg>