<svg width="100" height="100" viewBox="0 0 100 100" xmlns="http://www.w3.org/2000/svg"><title>design-categories-bigcommerce</title><g fill="none" fill-rule="evenodd"><path fill="#F4F4F4" d="M11 11h78v78H11z"/><path stroke="#5D6D81" stroke-width="2" d="M11 11h78v78H11z"/><path fill="#6E8097" d="M11 11h78v16.138H11z"/><path stroke="#5D6D81" stroke-width="2" d="M11 11h78v16.138H11z"/><path d="M23.316 19.069c0 2.228-1.838 4.034-4.105 4.034-2.268 0-4.106-1.806-4.106-4.034 0-2.228 1.838-4.035 4.106-4.035 2.267 0 4.105 1.807 4.105 4.035z" fill="#F08481"/><path d="M23.316 19.069c0 2.228-1.838 4.034-4.105 4.034-2.268 0-4.106-1.806-4.106-4.034 0-2.228 1.838-4.035 4.106-4.035 2.267 0 4.105 1.807 4.105 4.035z" stroke="#5D6D81" stroke-width="2"/><path d="M35.632 19.069c0 2.228-1.838 4.034-4.106 4.034-2.267 0-4.105-1.806-4.105-4.034 0-2.228 1.838-4.035 4.105-4.035 2.268 0 4.106 1.807 4.106 4.035z" fill="#EBB200"/><path d="M35.632 19.069c0 2.228-1.838 4.034-4.106 4.034-2.267 0-4.105-1.806-4.105-4.034 0-2.228 1.838-4.035 4.105-4.035 2.268 0 4.106 1.807 4.106 4.035z" stroke="#5D6D81" stroke-width="2"/><path d="M47.947 19.069c0 2.228-1.837 4.034-4.105 4.034-2.267 0-4.105-1.806-4.105-4.034 0-2.228 1.838-4.035 4.105-4.035 2.268 0 4.105 1.807 4.105 4.035z" fill="#7DDEB1"/><path d="M47.947 19.069c0 2.228-1.837 4.034-4.105 4.034-2.267 0-4.105-1.806-4.105-4.034 0-2.228 1.838-4.035 4.105-4.035 2.268 0 4.105 1.807 4.105 4.035z" stroke="#5D6D81" stroke-width="2"/><path fill="#6E8097" d="M16.474 70.172h17.79v13.449h-17.79z"/><path stroke="#5D6D81" stroke-width="2" d="M16.474 70.172h17.79v13.449h-17.79z"/><path fill="#6E8097" d="M41.105 70.172h17.79v13.449h-17.79z"/><path stroke="#5D6D81" stroke-width="2" d="M41.105 70.172h17.79v13.449h-17.79z"/><path fill="#FFF" d="M16.474 51.345h17.79v13.448h-17.79z"/><path stroke="#5D6D81" stroke-width="2" d="M16.474 51.345h17.79v13.448h-17.79z"/><path fill="#FFF" d="M65.737 70.172h17.79v13.449h-17.79z"/><path stroke="#5D6D81" stroke-width="2" d="M65.737 70.172h17.79v13.449h-17.79z"/><path fill="#6E8097" d="M41.105 51.345h17.79v13.448h-17.79z"/><g fill="#5D6D81" fill-rule="nonzero"><path d="M50.906 39.86h2.044c.582 0 .95-.3.95-.78 0-.453-.368-.78-.95-.78h-2.044c-.068 0-.126.054-.126.109v1.342c.01.064.058.109.126.109zm.024 3.9h2.515c.773 0 1.235-.423 1.235-1.17 0-.647-.438-1.17-1.235-1.17H50.93c-.08 0-.15.075-.15.15v2.028c.012.1.07.162.15.162z"/><path d="M59.152 29.76l-6.693 6.675h1.094c1.706 0 2.714 1.073 2.714 2.243 0 .922-.622 1.599-1.287 1.899-.108.043-.108.193.01.236.773.3 1.32 1.106 1.32 2.05 0 1.33-.89 2.393-2.617 2.393h-4.74c-.076 0-.14-.064-.14-.129v-5.054l-7.347 7.319c-.096.096-.032.268.107.268h17.665a.12.12 0 0 0 .118-.118V29.856c.032-.118-.118-.182-.204-.097z"/></g><path stroke="#5D6D81" stroke-width="2" d="M41.105 51.345h17.79v13.448h-17.79z"/><path fill="#6E8097" d="M65.737 51.345h17.79v13.448h-17.79z"/><path stroke="#5D6D81" stroke-width="2" d="M65.737 51.345h17.79v13.448h-17.79z"/><path d="M80.79 74.207a1.357 1.357 0 0 1-1.369-1.345c0-.742.613-1.345 1.368-1.345.756 0 1.369.603 1.369 1.345s-.613 1.345-1.369 1.345m-4.105 4.034a1.357 1.357 0 0 1-1.368-1.344c0-.743.613-1.345 1.368-1.345.756 0 1.369.602 1.369 1.345 0 .742-.613 1.344-1.369 1.344m4.106 4.035a1.357 1.357 0 0 1-1.369-1.345c0-.742.613-1.345 1.368-1.345.756 0 1.369.603 1.369 1.345s-.613 1.345-1.369 1.345m-8.21-8.069a1.357 1.357 0 0 1-1.368-1.345c0-.742.613-1.345 1.368-1.345.755 0 1.368.603 1.368 1.345s-.613 1.345-1.368 1.345m-4.105 4.034a1.357 1.357 0 0 1-1.369-1.344c0-.743.613-1.345 1.369-1.345.755 0 1.368.602 1.368 1.345 0 .742-.613 1.344-1.368 1.344m4.105 4.035a1.357 1.357 0 0 1-1.368-1.345c0-.742.613-1.345 1.368-1.345.755 0 1.368.603 1.368 1.345s-.613 1.345-1.368 1.345M19.21 60.759c.756 0 1.369.602 1.369 1.344 0 .743-.613 1.345-1.368 1.345a1.357 1.357 0 0 1-1.369-1.345c0-.742.613-1.344 1.369-1.344m4.105-4.035c.755 0 1.368.603 1.368 1.345s-.613 1.345-1.368 1.345a1.357 1.357 0 0 1-1.369-1.345c0-.742.613-1.345 1.369-1.345M19.21 52.69c.756 0 1.369.602 1.369 1.344 0 .743-.613 1.345-1.368 1.345a1.357 1.357 0 0 1-1.369-1.345c0-.742.613-1.344 1.369-1.344m8.21 8.069c.755 0 1.368.602 1.368 1.344 0 .743-.613 1.345-1.368 1.345a1.357 1.357 0 0 1-1.368-1.345c0-.742.613-1.344 1.368-1.344m4.105-4.035c.756 0 1.369.603 1.369 1.345s-.613 1.345-1.369 1.345a1.357 1.357 0 0 1-1.368-1.345c0-.742.613-1.345 1.368-1.345m-4.105-4.034c.755 0 1.368.602 1.368 1.344 0 .743-.613 1.345-1.368 1.345a1.357 1.357 0 0 1-1.368-1.345c0-.742.613-1.344 1.368-1.344" fill="#5D6D81"/></g></svg>